<mxfile host="app.diagrams.net" modified="2023-11-21T07:03:19.366Z" agent="Mozilla/5.0 (X11; Linux x86_64) AppleWebKit/537.36 (KHTML, like Gecko) Chrome/119.0.0.0 Safari/537.36" etag="-5Elqu1e003HF2CeVqfB" version="22.1.3" type="github">
  <diagram name="Page-1" id="wxQ8wks-06ShNmgMb-aG">
    <mxGraphModel dx="733" dy="400" grid="1" gridSize="10" guides="1" tooltips="1" connect="1" arrows="1" fold="1" page="1" pageScale="1" pageWidth="850" pageHeight="1100" math="0" shadow="0">
      <root>
        <mxCell id="0" />
        <mxCell id="1" parent="0" />
        <mxCell id="_aWphJbqPbo6XNTWu4PH-1" value="Animation" style="swimlane;fontStyle=1;align=center;verticalAlign=top;childLayout=stackLayout;horizontal=1;startSize=26;horizontalStack=0;resizeParent=1;resizeParentMax=0;resizeLast=0;collapsible=1;marginBottom=0;whiteSpace=wrap;html=1;" vertex="1" parent="1">
          <mxGeometry x="290" y="150" width="290" height="532" as="geometry" />
        </mxCell>
        <mxCell id="_aWphJbqPbo6XNTWu4PH-2" value="+ typedef unique_ptr&amp;lt;Animation&amp;gt; Ptr" style="text;strokeColor=none;fillColor=none;align=left;verticalAlign=top;spacingLeft=4;spacingRight=4;overflow=hidden;rotatable=0;points=[[0,0.5],[1,0.5]];portConstraint=eastwest;whiteSpace=wrap;html=1;" vertex="1" parent="_aWphJbqPbo6XNTWu4PH-1">
          <mxGeometry y="26" width="290" height="26" as="geometry" />
        </mxCell>
        <mxCell id="_aWphJbqPbo6XNTWu4PH-5" value="- mSprite: sf::Sprite" style="text;strokeColor=none;fillColor=none;align=left;verticalAlign=top;spacingLeft=4;spacingRight=4;overflow=hidden;rotatable=0;points=[[0,0.5],[1,0.5]];portConstraint=eastwest;whiteSpace=wrap;html=1;" vertex="1" parent="_aWphJbqPbo6XNTWu4PH-1">
          <mxGeometry y="52" width="290" height="26" as="geometry" />
        </mxCell>
        <mxCell id="_aWphJbqPbo6XNTWu4PH-6" value="- mStartRect: sf::IntRect" style="text;strokeColor=none;fillColor=none;align=left;verticalAlign=top;spacingLeft=4;spacingRight=4;overflow=hidden;rotatable=0;points=[[0,0.5],[1,0.5]];portConstraint=eastwest;whiteSpace=wrap;html=1;" vertex="1" parent="_aWphJbqPbo6XNTWu4PH-1">
          <mxGeometry y="78" width="290" height="26" as="geometry" />
        </mxCell>
        <mxCell id="_aWphJbqPbo6XNTWu4PH-8" value="- mDuration: sf::Time" style="text;strokeColor=none;fillColor=none;align=left;verticalAlign=top;spacingLeft=4;spacingRight=4;overflow=hidden;rotatable=0;points=[[0,0.5],[1,0.5]];portConstraint=eastwest;whiteSpace=wrap;html=1;" vertex="1" parent="_aWphJbqPbo6XNTWu4PH-1">
          <mxGeometry y="104" width="290" height="26" as="geometry" />
        </mxCell>
        <mxCell id="_aWphJbqPbo6XNTWu4PH-9" value="- mElapsedTime: sf::Time" style="text;strokeColor=none;fillColor=none;align=left;verticalAlign=top;spacingLeft=4;spacingRight=4;overflow=hidden;rotatable=0;points=[[0,0.5],[1,0.5]];portConstraint=eastwest;whiteSpace=wrap;html=1;" vertex="1" parent="_aWphJbqPbo6XNTWu4PH-1">
          <mxGeometry y="130" width="290" height="26" as="geometry" />
        </mxCell>
        <mxCell id="_aWphJbqPbo6XNTWu4PH-7" value="- mCurFrame: int" style="text;strokeColor=none;fillColor=none;align=left;verticalAlign=top;spacingLeft=4;spacingRight=4;overflow=hidden;rotatable=0;points=[[0,0.5],[1,0.5]];portConstraint=eastwest;whiteSpace=wrap;html=1;" vertex="1" parent="_aWphJbqPbo6XNTWu4PH-1">
          <mxGeometry y="156" width="290" height="26" as="geometry" />
        </mxCell>
        <mxCell id="_aWphJbqPbo6XNTWu4PH-10" value="- mNumFrame: int" style="text;strokeColor=none;fillColor=none;align=left;verticalAlign=top;spacingLeft=4;spacingRight=4;overflow=hidden;rotatable=0;points=[[0,0.5],[1,0.5]];portConstraint=eastwest;whiteSpace=wrap;html=1;" vertex="1" parent="_aWphJbqPbo6XNTWu4PH-1">
          <mxGeometry y="182" width="290" height="26" as="geometry" />
        </mxCell>
        <mxCell id="_aWphJbqPbo6XNTWu4PH-11" value="- mInProgress: bool" style="text;strokeColor=none;fillColor=none;align=left;verticalAlign=top;spacingLeft=4;spacingRight=4;overflow=hidden;rotatable=0;points=[[0,0.5],[1,0.5]];portConstraint=eastwest;whiteSpace=wrap;html=1;" vertex="1" parent="_aWphJbqPbo6XNTWu4PH-1">
          <mxGeometry y="208" width="290" height="26" as="geometry" />
        </mxCell>
        <mxCell id="_aWphJbqPbo6XNTWu4PH-12" value="- mRepeat: bool" style="text;strokeColor=none;fillColor=none;align=left;verticalAlign=top;spacingLeft=4;spacingRight=4;overflow=hidden;rotatable=0;points=[[0,0.5],[1,0.5]];portConstraint=eastwest;whiteSpace=wrap;html=1;" vertex="1" parent="_aWphJbqPbo6XNTWu4PH-1">
          <mxGeometry y="234" width="290" height="26" as="geometry" />
        </mxCell>
        <mxCell id="_aWphJbqPbo6XNTWu4PH-3" value="" style="line;strokeWidth=1;fillColor=none;align=left;verticalAlign=middle;spacingTop=-1;spacingLeft=3;spacingRight=3;rotatable=0;labelPosition=right;points=[];portConstraint=eastwest;strokeColor=inherit;" vertex="1" parent="_aWphJbqPbo6XNTWu4PH-1">
          <mxGeometry y="260" width="290" height="8" as="geometry" />
        </mxCell>
        <mxCell id="_aWphJbqPbo6XNTWu4PH-13" value="+ Animation(texture: const sf::Texture&amp;amp;, frameSize: &lt;span style=&quot;white-space: pre;&quot;&gt;&#x9;&lt;/span&gt;&lt;span style=&quot;white-space: pre;&quot;&gt;&#x9;&lt;/span&gt;&lt;span style=&quot;white-space: pre;&quot;&gt;&#x9;&lt;/span&gt;sf::Vector2i, numFrame: int)" style="text;strokeColor=none;fillColor=none;align=left;verticalAlign=top;spacingLeft=4;spacingRight=4;overflow=hidden;rotatable=0;points=[[0,0.5],[1,0.5]];portConstraint=eastwest;whiteSpace=wrap;html=1;" vertex="1" parent="_aWphJbqPbo6XNTWu4PH-1">
          <mxGeometry y="268" width="290" height="42" as="geometry" />
        </mxCell>
        <mxCell id="_aWphJbqPbo6XNTWu4PH-14" value="+ setDuration(t: sf::Time)" style="text;strokeColor=none;fillColor=none;align=left;verticalAlign=top;spacingLeft=4;spacingRight=4;overflow=hidden;rotatable=0;points=[[0,0.5],[1,0.5]];portConstraint=eastwest;whiteSpace=wrap;html=1;" vertex="1" parent="_aWphJbqPbo6XNTWu4PH-1">
          <mxGeometry y="310" width="290" height="26" as="geometry" />
        </mxCell>
        <mxCell id="_aWphJbqPbo6XNTWu4PH-15" value="+ setRepeat(flag: bool)" style="text;strokeColor=none;fillColor=none;align=left;verticalAlign=top;spacingLeft=4;spacingRight=4;overflow=hidden;rotatable=0;points=[[0,0.5],[1,0.5]];portConstraint=eastwest;whiteSpace=wrap;html=1;" vertex="1" parent="_aWphJbqPbo6XNTWu4PH-1">
          <mxGeometry y="336" width="290" height="26" as="geometry" />
        </mxCell>
        <mxCell id="_aWphJbqPbo6XNTWu4PH-4" value="+ &amp;lt;&amp;lt;const&amp;gt;&amp;gt; isInProgress(): bool" style="text;strokeColor=none;fillColor=none;align=left;verticalAlign=top;spacingLeft=4;spacingRight=4;overflow=hidden;rotatable=0;points=[[0,0.5],[1,0.5]];portConstraint=eastwest;whiteSpace=wrap;html=1;" vertex="1" parent="_aWphJbqPbo6XNTWu4PH-1">
          <mxGeometry y="362" width="290" height="26" as="geometry" />
        </mxCell>
        <mxCell id="_aWphJbqPbo6XNTWu4PH-16" value="+ &amp;lt;&amp;lt;const&amp;gt;&amp;gt; isRepeated(): bool" style="text;strokeColor=none;fillColor=none;align=left;verticalAlign=top;spacingLeft=4;spacingRight=4;overflow=hidden;rotatable=0;points=[[0,0.5],[1,0.5]];portConstraint=eastwest;whiteSpace=wrap;html=1;" vertex="1" parent="_aWphJbqPbo6XNTWu4PH-1">
          <mxGeometry y="388" width="290" height="26" as="geometry" />
        </mxCell>
        <mxCell id="_aWphJbqPbo6XNTWu4PH-18" value="+ update(dt: sf::Time): void" style="text;strokeColor=none;fillColor=none;align=left;verticalAlign=top;spacingLeft=4;spacingRight=4;overflow=hidden;rotatable=0;points=[[0,0.5],[1,0.5]];portConstraint=eastwest;whiteSpace=wrap;html=1;" vertex="1" parent="_aWphJbqPbo6XNTWu4PH-1">
          <mxGeometry y="414" width="290" height="26" as="geometry" />
        </mxCell>
        <mxCell id="_aWphJbqPbo6XNTWu4PH-19" value="+ play(): void" style="text;strokeColor=none;fillColor=none;align=left;verticalAlign=top;spacingLeft=4;spacingRight=4;overflow=hidden;rotatable=0;points=[[0,0.5],[1,0.5]];portConstraint=eastwest;whiteSpace=wrap;html=1;" vertex="1" parent="_aWphJbqPbo6XNTWu4PH-1">
          <mxGeometry y="440" width="290" height="26" as="geometry" />
        </mxCell>
        <mxCell id="_aWphJbqPbo6XNTWu4PH-20" value="+ stop(): void" style="text;strokeColor=none;fillColor=none;align=left;verticalAlign=top;spacingLeft=4;spacingRight=4;overflow=hidden;rotatable=0;points=[[0,0.5],[1,0.5]];portConstraint=eastwest;whiteSpace=wrap;html=1;" vertex="1" parent="_aWphJbqPbo6XNTWu4PH-1">
          <mxGeometry y="466" width="290" height="26" as="geometry" />
        </mxCell>
        <mxCell id="_aWphJbqPbo6XNTWu4PH-17" value="- &amp;lt;&amp;lt;const&amp;gt;&amp;gt; draw(target: sf::RenderTarget&amp;amp;, states: &lt;span style=&quot;white-space: pre;&quot;&gt;&#x9;&lt;/span&gt;&lt;span style=&quot;white-space: pre;&quot;&gt;&#x9;&lt;/span&gt;&lt;span style=&quot;white-space: pre;&quot;&gt;&#x9;&lt;/span&gt;&lt;span style=&quot;white-space: pre;&quot;&gt;&#x9;&lt;/span&gt;sf::RenderStates): void" style="text;strokeColor=none;fillColor=none;align=left;verticalAlign=top;spacingLeft=4;spacingRight=4;overflow=hidden;rotatable=0;points=[[0,0.5],[1,0.5]];portConstraint=eastwest;whiteSpace=wrap;html=1;" vertex="1" parent="_aWphJbqPbo6XNTWu4PH-1">
          <mxGeometry y="492" width="290" height="40" as="geometry" />
        </mxCell>
      </root>
    </mxGraphModel>
  </diagram>
</mxfile>
